<?xml version="1.0" standalone="no"?>
<!DOCTYPE svg PUBLIC "-//W3C//DTD SVG 20010904//EN"
 "http://www.w3.org/TR/2001/REC-SVG-20010904/DTD/svg10.dtd">
<svg version="1.0" xmlns="http://www.w3.org/2000/svg"
 width="118.000000pt" height="118.000000pt" viewBox="0 0 118.000000 118.000000"
 preserveAspectRatio="xMidYMid meet">
<metadata>
Created by potrace 1.11, written by Peter Selinger 2001-2013
</metadata>
<g transform="translate(0.000000,118.000000) scale(0.100000,-0.100000)"
fill="#000000" stroke="none">
<path d="M230 1138 c-11 -19 -17 -42 -14 -57 10 -50 10 -86 2 -109 -5 -15 -4
-21 2 -17 6 4 7 -6 4 -24 -11 -53 36 -82 67 -43 13 15 18 136 10 243 -1 9 -12
21 -26 27 -23 11 -27 9 -45 -20z m64 -14 c3 -8 2 -12 -3 -9 -13 8 -24 -12 -14
-27 11 -18 10 -42 -2 -50 -6 -5 -5 -8 3 -8 6 0 12 -5 12 -11 0 -5 -4 -8 -8 -5
-5 3 -9 -1 -9 -9 0 -8 5 -11 11 -8 6 4 5 0 -1 -9 -7 -8 -10 -18 -6 -22 14 -13
10 -64 -5 -62 -23 4 -28 23 -25 92 2 43 -1 72 -9 82 -10 12 -10 14 0 8 6 -4
12 -2 12 3 0 6 -4 11 -10 11 -5 0 -10 5 -10 11 0 5 5 7 10 4 6 -3 10 -1 10 5
0 7 7 10 15 6 8 -3 15 -1 15 4 0 15 7 12 14 -6z"/>
<path d="M1082 1149 c-21 -19 -22 -23 -9 -42 16 -24 35 -29 55 -14 14 11 17
31 2 22 -5 -3 -10 -1 -10 4 0 6 5 11 10 11 6 0 10 5 10 10 0 6 -6 10 -14 10
-8 0 -16 5 -18 10 -2 6 -14 1 -26 -11z m23 -9 c4 -6 1 -9 -7 -8 -7 2 -12 -3
-10 -10 1 -8 -2 -11 -8 -7 -8 5 -7 11 1 21 14 17 16 17 24 4z m15 -39 c0 -4
-6 -8 -14 -8 -8 0 -12 6 -9 14 5 13 23 9 23 -6z"/>
<path d="M47 1139 c-3 -11 0 -19 6 -19 8 0 8 -3 2 -8 -5 -4 -10 -33 -11 -65 0
-36 3 -54 9 -48 5 5 10 21 10 35 1 14 5 26 10 26 4 0 7 5 7 11 0 5 -6 7 -12 3
-10 -5 -10 -4 -1 6 6 7 9 18 7 25 -9 22 17 29 34 10 10 -10 12 -15 5 -11 -8 4
-11 -3 -11 -21 1 -46 -1 -53 -17 -53 -8 0 -15 -6 -15 -14 0 -7 -6 -18 -13 -24
-8 -7 -12 -31 -11 -64 2 -66 2 -66 14 -48 6 10 10 11 10 3 0 -7 7 -13 15 -13
8 0 15 6 15 13 0 9 3 8 9 -2 6 -9 11 -10 15 -2 4 6 5 11 1 11 -3 0 -1 9 5 20
9 16 8 20 -5 20 -14 0 -14 2 -2 14 13 14 15 94 2 115 -3 5 -2 11 2 14 5 2 1 2
-7 0 -12 -2 -12 -1 1 9 15 12 17 54 3 67 -3 3 -21 7 -39 7 -25 1 -35 -3 -38
-17z m70 -157 c-15 -3 -16 -6 -5 -20 11 -13 11 -14 -1 -7 -11 6 -13 2 -8 -21
5 -26 3 -30 -17 -30 -20 0 -22 4 -19 36 5 54 9 58 40 52 20 -4 23 -7 10 -10z"/>
<path d="M169 1158 c-1 -2 -3 -56 -5 -121 -2 -89 0 -116 9 -110 9 5 9 3 1 -8
-14 -18 -14 -51 0 -46 10 3 25 145 18 167 -2 6 -9 8 -15 4 -7 -3 -5 0 4 8 18
15 14 42 -4 32 -8 -5 -8 -2 1 7 14 16 16 69 2 69 -5 0 -11 -1 -11 -2z"/>
<path d="M335 1021 c0 -129 5 -164 21 -148 9 9 9 261 0 275 -17 28 -21 4 -21
-127z"/>
<path d="M393 1020 c2 -145 17 -190 28 -83 6 59 7 60 15 8 8 -59 15 -76 27
-72 14 4 18 275 4 284 -15 9 -20 -6 -19 -63 0 -62 -4 -66 -13 -14 -4 19 -8 42
-10 50 -2 8 -4 18 -4 23 -1 4 -7 7 -15 7 -12 0 -14 -24 -13 -140z"/>
<path d="M512 1143 c-7 -15 -9 -105 -3 -135 0 -4 11 -8 24 -10 19 -3 22 -9 22
-45 0 -24 -4 -43 -10 -43 -5 0 -11 5 -11 10 -1 6 -2 15 -3 21 -2 19 -24 4 -28
-20 -6 -41 46 -68 75 -39 16 16 16 120 0 136 -7 7 -19 12 -28 12 -13 0 -17 10
-17 45 -1 52 13 68 27 31 14 -37 30 -32 30 8 0 22 -6 36 -16 40 -28 11 -53 6
-62 -11z"/>
<path d="M610 1146 c0 -8 6 -16 14 -19 11 -4 14 -32 13 -126 0 -67 3 -124 6
-128 16 -15 21 14 22 126 0 97 4 121 18 135 24 24 22 26 -28 26 -32 0 -45 -4
-45 -14z"/>
<path d="M724 1152 c-16 -11 -13 -274 4 -279 9 -4 12 29 12 141 0 80 -1 146
-2 146 -2 0 -8 -4 -14 -8z"/>
<path d="M755 1152 c-10 -10 -5 -21 13 -24 15 -3 17 -17 18 -125 0 -68 4 -126
8 -130 16 -16 22 22 21 128 -1 98 1 114 18 129 10 10 14 21 9 24 -11 7 -80 5
-87 -2z"/>
<path d="M860 1034 c0 -136 8 -164 45 -164 14 0 29 8 35 19 14 26 13 258 -1
266 -19 12 -21 -2 -23 -125 -1 -74 -5 -119 -11 -118 -10 3 -13 40 -14 176 -1
57 -4 72 -16 72 -13 0 -15 -21 -15 -126z"/>
<path d="M965 1151 c-3 -6 2 -14 12 -20 16 -8 18 -24 17 -130 -1 -92 2 -121
13 -125 15 -6 15 -10 15 141 0 77 3 112 11 110 6 -1 13 6 15 16 3 14 -4 17
-37 17 -22 0 -42 -4 -46 -9z"/>
<path d="M493 803 c-44 -22 -53 -36 -57 -82 -4 -44 -8 -49 -60 -78 -26 -13
-32 -14 -55 -1 -45 25 -106 14 -130 -24 -31 -50 -16 -111 33 -138 14 -7 26
-20 27 -29 4 -55 -1 -96 -11 -99 -30 -10 -62 -50 -66 -82 -9 -78 75 -130 144
-90 l34 21 42 -25 c39 -23 42 -28 42 -66 0 -72 72 -117 136 -84 32 17 51 47
54 89 1 17 3 33 3 38 1 4 6 7 12 7 6 0 25 10 42 22 29 21 31 21 59 5 67 -38
135 -5 145 70 5 37 2 45 -25 73 -17 16 -37 30 -44 30 -9 0 -13 10 -12 28 1 15
3 39 3 54 1 19 10 32 31 45 38 22 56 75 41 115 -21 56 -93 77 -145 43 -24 -16
-27 -16 -68 12 -29 19 -42 36 -43 53 -5 79 -70 125 -132 93z m204 -234 c2 -32
-2 -41 -27 -59 l-30 -21 -37 25 c-21 15 -42 26 -48 26 -6 0 -10 16 -10 37 2
29 8 41 34 59 l33 22 41 -26 c36 -22 42 -31 44 -63z m-210 64 c19 -12 29 -28
31 -49 3 -27 -3 -34 -48 -62 l-52 -32 -27 19 c-22 16 -28 28 -27 55 1 29 8 40
36 60 42 30 52 31 87 9z m-105 -153 c21 -16 26 -29 26 -69 2 -45 -1 -51 -30
-69 -30 -19 -33 -19 -57 -4 -36 23 -40 30 -38 82 1 40 4 48 31 62 40 21 39 21
68 -2z m362 5 c10 -8 23 -12 27 -9 5 3 9 -21 9 -54 0 -57 -1 -60 -33 -77 -33
-17 -35 -17 -65 0 -28 17 -31 23 -30 67 0 39 5 52 25 68 30 24 41 24 67 5z
m-279 -175 c3 -6 15 -10 26 -10 10 0 19 -1 20 -2 0 -2 2 -22 5 -45 5 -39 3
-42 -30 -58 -31 -15 -37 -15 -63 -1 -50 27 -55 33 -59 67 -3 29 1 37 28 56 31
22 57 19 73 -7z m185 22 c0 -4 10 -12 23 -17 16 -7 23 -20 25 -47 3 -35 0 -40
-43 -67 -45 -29 -47 -29 -76 -13 -16 10 -29 24 -30 32 0 8 -2 27 -3 42 -1 22
5 30 36 44 21 9 38 21 38 26 0 4 7 8 15 8 8 0 15 -3 15 -8z"/>
</g>
</svg>
