<?xml version="1.0" encoding="UTF-8"?>
<svg width="12px" height="20px" viewBox="0 0 12 20" version="1.1" xmlns="http://www.w3.org/2000/svg" xmlns:xlink="http://www.w3.org/1999/xlink">
    <!-- Generator: sketchtool 52.6 (67491) - http://www.bohemiancoding.com/sketch -->
    <title>28399EDE-9C13-47D2-BBBA-991289D80DC2</title>
    <desc>Created with sketchtool.</desc>
    <g id="Page-1" stroke="none" stroke-width="1" fill="none" fill-rule="evenodd">
        <g id="DDD-990" transform="translate(-719.000000, -6732.000000)" fill="#FFFFFF">
            <g id="Group-6" transform="translate(0.000000, 5269.000000)">
                <g id="Group-5" transform="translate(0.000000, 915.000000)">
                    <g id="Arrows" transform="translate(699.000000, 532.000000)">
                        <g id="Arrow">
                            <g transform="translate(20.422297, 16.250000)" id="Path">
                                <path d="M10.7737158,10.7153503 L2.34370434,19.0997802 C1.80745378,19.6334066 0.938015427,19.6334066 0.402025207,19.0997802 C-0.134008402,18.5666285 -0.134008402,17.7019077 0.402025207,17.1687991 L7.86128391,9.74985974 L0.402242155,2.3311793 C-0.133791455,1.79781181 -0.133791455,0.933177326 0.402242155,0.400025617 C0.938275764,-0.133341872 1.80767073,-0.133341872 2.34392129,0.400025617 L10.7739328,8.78458499 C11.0419496,9.05129032 11.1758061,9.40046714 11.1758061,9.74981659 C11.1758061,10.0993387 11.0416892,10.4487744 10.7737158,10.7153503 Z" transform="translate(5.587903, 9.750000) scale(-1, 1) translate(-5.587903, -9.750000) "></path>
                            </g>
                        </g>
                    </g>
                </g>
            </g>
        </g>
    </g>
</svg>