<?xml version="1.0" encoding="UTF-8"?>
<svg width="56px" height="56px" viewBox="0 0 56 56" version="1.1" xmlns="http://www.w3.org/2000/svg" xmlns:xlink="http://www.w3.org/1999/xlink">
    <!-- Generator: sketchtool 52.5 (67469) - http://www.bohemiancoding.com/sketch -->
    <title>94181FFD-DE39-45CF-B50F-D83CE3C9EE91</title>
    <desc>Created with sketchtool.</desc>
    <g id="Page-1" stroke="none" stroke-width="1" fill="none" fill-rule="evenodd" opacity="0.951474144">
        <g id="Pocetna-v1" transform="translate(-1587.000000, -556.000000)" fill="#0093DD">
            <g id="Group">
                <g id="O-nama">
                    <g id="Image" transform="translate(1039.000000, 106.000000)">
                        <g id="Symbol-bg">
                            <g id="Bird" transform="translate(548.000000, 450.000000)">
                                <path d="M48.5731304,46.8424613 C47.5820388,46.5309963 46.6458073,46.2367514 45.8552385,45.948525 C44.788306,45.5596536 44.5387704,45.3811004 44.4835664,45.3105485 C44.541522,45.2587212 44.7248472,45.1796429 44.8503889,45.1256422 C45.2861734,44.9377267 45.8829265,44.6804295 45.9164616,44.0951161 C45.9567037,43.3894298 45.2718995,42.0322248 38.887674,38.409668 C33.9411589,35.6028051 32.3718876,33.0129479 30.5548004,30.0139898 C29.5370527,28.3342857 28.4845661,26.5972373 26.7440078,24.6176039 C26.2600703,24.0672321 25.6430243,23.4473115 24.9286404,22.7295878 C21.9699836,19.7570449 17.4989792,15.2647936 17.1851249,9.88980741 C16.7883787,3.06833971 11.6511435,0 8.13012861,0 L8.04328127,0.000501553922 C5.77011656,0.0317650817 4.21305549,1.47774504 3.30709153,2.68565407 C2.88626886,3.24823038 2.11152177,3.96043695 1.59645684,4.34496162 C0.968920295,4.81190832 0.475180253,5.37097376 0.129682606,6.00594103 C-0.0299101344,6.29583919 -0.0426362797,6.57754531 0.0939118196,6.79923214 C0.266918605,7.07993516 0.648874938,7.22254365 1.12352576,7.16837583 C1.49567952,7.12657967 1.83636187,7.10618314 2.16500598,7.10618314 C3.71106065,7.10618314 4.83010156,7.55055992 5.49065729,8.4269418 C6.43204809,9.67564388 6.42809267,11.7893593 5.47913497,14.7089047 C2.78119217,23.0099564 1.99853424,29.1471374 3.08627571,33.4715353 C4.48597971,39.038951 6.41932194,42.4314618 13.1027839,45.5242104 C13.7430466,45.8204616 14.4533031,46.0784275 15.2196234,46.3096439 C14.7358579,47.7425834 14.2020477,49.1589717 13.7232695,50.0557501 C13.6873267,50.1232927 13.6660018,50.2028726 13.6451928,50.2797775 C13.6364221,50.3120442 13.6240399,50.3580199 13.6118297,50.3932959 C13.507097,50.3352828 13.3060583,50.1868229 13.1247967,50.052908 C12.827452,49.8332274 12.457362,49.5598805 12.0649151,49.3293328 C11.3362573,48.9013402 10.7708038,48.7020561 10.2856625,48.7020561 C9.9135087,48.7020561 9.6404125,48.8194197 9.4221763,48.9342755 C9.36783222,48.9628641 9.24022682,49.0300723 9.27221416,49.1666622 C9.30437347,49.3039208 9.43490245,49.3102738 9.5731703,49.316794 C9.92761064,49.3335125 10.8481925,49.377482 11.7311118,50.2894742 C11.3328178,50.2782729 10.4576374,50.1092492 9.05999709,49.7727065 C8.8973088,49.7335853 8.73634026,49.7150278 8.58139084,49.7150278 C7.42434347,49.7150278 6.85166693,50.786347 6.63601036,51.1887604 C6.60780647,51.2414236 6.58785738,51.2862291 6.57599111,51.3027803 L6.49825844,51.4076051 L6.59267268,51.6217686 L6.70204874,51.6217686 C6.75467307,51.6217686 6.78528461,51.5838177 6.8669727,51.5381763 C8.15781657,50.8184464 9.66586479,50.6972376 11.1642824,51.2359065 C11.6012707,51.3928929 11.8504624,51.5908395 11.9873545,51.7458196 C11.9465964,51.7760801 11.908074,51.8080123 11.8702395,51.8404461 C11.482952,51.8247308 11.1744289,51.8172075 10.9188742,51.8172075 C10.508714,51.8172075 10.2856625,51.8362665 10.0273561,51.8585021 C9.77868035,51.8797345 9.49681343,51.9039763 8.97469752,51.9146761 C8.60082401,51.9223666 8.24861934,51.9783735 7.95626195,52.0768452 C7.12080771,52.3580498 6.72474943,52.8876907 6.70634811,52.9126012 L6.17718123,53.6625915 L6.16170349,53.6893411 C6.09979251,53.8254294 6.09428932,53.9332635 6.14553785,54.009834 C6.21054437,54.1069683 6.33918162,54.1303742 6.48432847,54.0410976 C7.60147766,53.3543031 8.50950532,53.0339773 9.34220796,53.0339773 C9.87859778,53.0339773 10.3271084,53.1668891 10.7608292,53.2959556 C11.180792,53.4210097 11.6152007,53.5490732 12.1115204,53.5490732 C12.3044762,53.5490732 12.4927888,53.5281751 12.6876364,53.4897226 C12.9624523,53.4352204 13.2198988,53.3718575 13.4689185,53.3146803 C14.1005825,53.1693969 14.6462589,53.0356491 15.2419801,53.0356491 C15.524191,53.0356491 15.8089815,53.0660767 16.1013389,53.1270991 C16.3355687,53.270042 16.470741,53.4161614 16.5402189,53.5204846 C16.0573133,53.4989178 15.6882551,53.4888867 15.3902225,53.4888867 C14.9800623,53.4888867 14.7570108,53.5079457 14.4987044,53.5301813 C14.2500287,53.5514138 13.9681618,53.5756555 13.4460459,53.5863553 C13.0721723,53.5940458 12.7199677,53.6500527 12.4276103,53.7485244 C11.592156,54.029729 11.1960978,54.55937 11.1776965,54.5842805 L10.6485296,55.3342708 L10.6330518,55.3610203 C10.5711409,55.4971086 10.5656377,55.6049427 10.6168862,55.6815133 C10.6818927,55.7786475 10.81053,55.8020534 10.9556768,55.7127768 C12.072826,55.0259823 12.9808537,54.7056565 13.8135563,54.7056565 C14.3499461,54.7056565 14.7984568,54.8385683 15.2321775,54.9676348 C15.6521403,55.092689 16.086549,55.2207524 16.5828687,55.2207524 C16.7758246,55.2207524 16.9641371,55.1998543 17.1589847,55.1614018 C17.4338007,55.1068997 17.6912472,55.0435367 17.9402669,54.9863595 C18.5719308,54.8410761 19.1176073,54.7073284 19.7133285,54.7073284 C20.7271207,54.7073284 21.7708366,55.083661 23.0976232,55.964724 L23.1567826,55.9679005 L23.2099229,55.9679005 L23.3198148,56 L23.366936,55.939312 C23.421968,55.8294717 23.421968,55.8294717 23.0020052,55.3075212 C22.5168639,54.7044862 21.2279117,53.1026902 21.3106317,52.6703507 C21.5357469,51.4960458 22.1054998,49.5705803 22.6859152,47.7450912 C23.8154466,47.8972292 24.9891755,48.0435158 26.2028027,48.193982 C28.9869049,48.5392182 32.142645,48.9307647 35.3988184,49.4829755 C36.9097902,49.7394368 38.5019342,50.0261584 40.0416258,50.3033506 C45.0074021,51.1977884 50.1424017,52.1224866 53.1275426,52.1224866 C54.5029982,52.1224866 55.361669,51.9283853 55.7522241,51.5291483 C55.9288424,51.3485889 56.0117343,51.1282396 55.9986642,50.8741189 C55.9095812,49.1479375 52.0119412,47.9229756 48.5731304,46.8424613 Z M18.2523305,51.8884141 C18.2437593,51.9201315 18.2316589,51.9653246 18.2197266,52 C18.1173772,51.9429745 17.9209136,51.7970419 17.7437769,51.6654067 C17.5367254,51.5115859 17.2925323,51.3311422 17.031197,51.1579293 C17.0044752,51.074774 16.9937193,51.0047658 17.0036349,50.9523418 C17.187494,49.9878389 17.6064708,48.5074774 18.070152,47 C18.6881134,47.1258833 19.3334689,47.241742 20,47.3515201 C19.4756487,48.9646672 18.8665945,50.6540674 18.3284622,51.6682005 C18.2933374,51.7345933 18.2724978,51.8128184 18.2523305,51.8884141 Z" id="Shape" transform="translate(28.000000, 28.000000) scale(-1, 1) translate(-28.000000, -28.000000) "></path>
                            </g>
                        </g>
                    </g>
                </g>
            </g>
        </g>
    </g>
</svg>