<?xml version="1.0" encoding="UTF-8"?>
<svg width="23px" height="17px" viewBox="0 0 23 17" version="1.1" xmlns="http://www.w3.org/2000/svg" xmlns:xlink="http://www.w3.org/1999/xlink">
    <!-- Generator: sketchtool 52.5 (67469) - http://www.bohemiancoding.com/sketch -->
    <title>7B4F8786-D7B1-402F-95CC-0515EBC6CFC7</title>
    <desc>Created with sketchtool.</desc>
    <g id="Page-1" stroke="none" stroke-width="1" fill="none" fill-rule="evenodd">
        <g id="Pocetna-v1" transform="translate(-1509.000000, -26.000000)" fill="#0093DD" fill-rule="nonzero">
            <g id="Group">
                <g id="Header" transform="translate(240.000000, 17.000000)">
                    <g id="Kontakt" transform="translate(1130.000000, 8.000000)">
                        <g id="Mail" transform="translate(139.000000, 0.000000)">
                            <g id="mail-black-envelope-symbol" transform="translate(0.000000, 1.000000)">
                                <path d="M22.1538614,13.88806 C22.1538614,14.3737263 22.017252,14.8239619 21.7984123,15.2200924 L14.8035302,7.39382017 L21.722574,1.34027324 C21.9917291,1.76740571 22.1538614,2.26914368 22.1538614,2.81133482 L22.1538614,13.88806 Z M11.0769535,8.81484036 L20.7045788,0.390902269 C20.3094983,0.174619371 19.8646048,0.0419822972 19.3846915,0.0419822972 L2.76921555,0.0419822972 C2.28870864,0.0419822972 1.84367816,0.174619371 1.45019578,0.390902269 L11.0769535,8.81484036 Z M13.7610622,8.30520352 L11.532531,10.2563611 C11.4021769,10.369913 11.239862,10.4266205 11.0769535,10.4266205 C10.9139537,10.4266205 10.7516388,10.369913 10.6212847,10.2563611 L8.3922513,8.3051122 L1.30888365,16.2314216 C1.73345926,16.4977915 2.23104233,16.6573669 2.76916989,16.6573669 L19.3846915,16.6573669 C19.9227277,16.6573669 20.4205391,16.4977915 20.8449777,16.2314216 L13.7610622,8.30520352 Z M0.431378683,1.34022758 C0.162269246,1.76736006 0,2.26909803 0,2.81133482 L0,13.8881057 C0,14.373772 0.135970123,14.8240075 0.355631728,15.2201381 L7.34969193,7.39249608 L0.431378683,1.34022758 Z" id="Shape"></path>
                            </g>
                        </g>
                    </g>
                </g>
            </g>
        </g>
    </g>
</svg>