<?xml version="1.0" encoding="UTF-8"?>
<svg width="297px" height="546px" viewBox="0 0 297 546" version="1.1" xmlns="http://www.w3.org/2000/svg" xmlns:xlink="http://www.w3.org/1999/xlink">
    <!-- Generator: sketchtool 52.5 (67469) - http://www.bohemiancoding.com/sketch -->
    <title>7BB950FA-5D64-4920-9B22-A6B87E128500</title>
    <desc>Created with sketchtool.</desc>
    <g id="Page-1" stroke="none" stroke-width="1" fill="none" fill-rule="evenodd" opacity="0.951474144">
        <g id="Pocetna-v1" transform="translate(-1260.000000, -261.000000)">
            <g id="Group">
                <g id="O-nama">
                    <g id="Image" transform="translate(1039.000000, 106.000000)">
                        <g id="Symbol-bg">
                            <g id="Istrebljivac" transform="translate(221.000000, 155.000000)">
                                <path d="M149.245142,182 L66.7548578,182 C58.0527668,182 51,175.915502 51,168.411553 L51,39.5884473 C51,32.0825048 58.0527668,26 66.7548578,26 L149.245142,26 C157.945227,26 165,32.0825048 165,39.5884473 L165,168.411553 C165,175.915502 157.945227,182 149.245142,182" id="Fill-1" fill="#A1A1A1"></path>
                                <polygon id="Fill-3" fill="#737373" points="147 94 69 94 70.2645615 27 144.829604 27"></polygon>
                                <path d="M44.3392542,110.262256 L60.6417589,198.152672 C60.6417589,198.152672 55.9346836,243.335011 52.5375773,254.711801 C52.4915081,259.858826 49.6452298,269.210492 48.8320074,273.050209 C48.018785,276.889926 46.4524306,289.355471 47.2055626,292.617726 C47.9566917,295.879982 46.9451712,307.375072 44.3392542,317.647066 C41.7353402,327.921066 43.2355953,425.748629 46.2100663,433.223545 C49.1825343,440.700466 58.0799082,450 58.0799082,450 L87.1776457,450 C87.1776457,450 98.384491,436.020624 99.6964631,428.351215 C101.008435,420.679802 98.2042201,402.678247 97.0885431,396.873558 C95.9728661,391.068868 107.646413,337.028112 107.610359,308.114944 C113.000461,336.793518 133.429168,401.745888 133.671532,408.525043 C133.915899,415.302193 127.836762,428.363246 130.761157,433.600499 C133.681547,438.835748 146.302518,450 146.302518,450 L172.375709,450 C172.375709,450 181.853956,442.56318 185.411303,418.797037 C188.966647,395.028889 175.348177,376.50401 173.130844,325.103936 C173.253028,321.278255 173.85994,303.685735 172.640107,298.045462 C171.41827,292.407194 165.793816,265.703617 162.655098,258.713929 C159.520386,251.724241 160.716183,247.770235 160.271515,240.313364 C159.824844,232.858499 157.477315,193.462804 157.477315,193.462804 L154.683115,185.839512 L169.581509,107 L44.3392542,110.262256 Z" id="Fill-5" fill="#D9D9D9"></path>
                                <path d="M138.113484,130.965421 C136.591254,139.162323 135.70446,146.761013 135.282177,153.84352 L88.1332599,153.84352 C85.9574964,147.095131 82.1408613,140.082649 75.5492227,134.434649 C79.3678687,130.84938 110.17845,137.337677 138.113484,130.965421 M93.8401148,211.607967 C78.1955303,191.792953 90.5141324,178.306179 90.5141324,178.306179 C90.5141324,178.306179 91.3828291,169.659118 90.4055453,161.638279 L135.000655,161.638279 C135.35859,209.345166 158.622368,231.284933 158.622368,231.284933 C158.622368,231.284933 159.77862,231.481002 160.796121,228.11381 C161.642698,225.302815 135.766797,196.854745 144.807677,129.146778 C153.363938,126.449823 161.403404,122.31636 167.997054,116.014129 C168.180043,115.153824 159.822859,114.333534 147.387626,113.58727 L140.625064,113.211137 C104.202138,111.308463 44.3445104,110 44.3445104,110 L60.7109979,197.701045 C60.7109979,197.701045 55.9854486,242.785004 52.5750097,254.135021 C52.5287596,259.27284 49.6713104,268.604143 48.8548964,272.433499 C48.0404932,276.264855 46.4659804,288.705258 47.2220683,291.960411 C47.9761453,295.215563 46.9606549,306.683623 44.3445104,316.933251 C41.7303768,327.18488 43.2365199,424.799433 46.2226649,432.260074 C49.2088099,439.718715 58.1390926,449 58.1390926,449 L71.7587289,449 C71.7587289,449 77.4515077,432.142033 78.7706397,424.491324 C80.0877609,416.838615 72.1790012,388.778683 71.0589454,382.988633 C69.9368788,377.194582 60.1921929,299.283003 107.865947,307.421884 C106.639315,301.793892 57.503657,314.906533 66.1504068,256.733941 C70.3571511,243.207153 159.744435,262.313916 160.850415,245.137836 C160.404001,237.699203 132.464945,212.532295 93.8401148,211.607967" id="Fill-7" fill="#C9C9C9"></path>
                                <path d="M108,307.534086 C113.357156,336.331673 133.668545,401.547013 133.909518,408.353825 C134.152482,415.158624 128.108255,428.274975 131.015857,433.531581 C133.921467,438.788188 146.469958,450 146.469958,450 L159.378913,450 L161,414.455999 C161,414.455999 132.977492,333.01383 129.852816,316.919876 C128.482659,302.736501 111.375606,308.109876 108,307.534086" id="Fill-9" fill="#C9C9C9"></path>
                                <polygon id="Fill-11" fill="#B3B3B3" points="161 244.642857 55 245 55.404649 243 160.99399 243"></polygon>
                                <polygon id="Fill-13" fill="#254A0C" points="54 242 161 242 160.592354 230 54.616489 230"></polygon>
                                <path d="M45,111.657151 C45,111.657151 45.5950945,115.018176 45.9650181,117.028301 C58.2006433,118.728083 74.7667873,129.476467 109.463209,128.983571 C136.447527,128.945031 155.279453,119.259518 168.385605,116.575972 C169.344592,113.168294 170,106 170,106 L45,111.657151 Z" id="Fill-15" fill="#B3B3B3"></path>
                                <path d="M168.529317,112.33157 L155,185.169744 L157.798063,192.791341 L158.515618,204.845172 L175.225829,213 L193.900295,198.13568 C193.900295,198.13568 194.64992,187.865969 192.03826,185.789174 C189.422592,183.712379 182.255061,185.169744 182.255061,185.169744 C182.255061,185.169744 186.1495,180.410756 185.748631,178.333961 C185.347762,176.257166 179.459002,171.343821 179.459002,171.343821 C179.459002,171.343821 177.426597,130.830281 172.239357,110.3089 C170.263074,108.98785 168.529317,112.33157 168.529317,112.33157" id="Fill-17" fill="#D9D9D9"></path>
                                <path d="M168.711108,112.33157 L155,185.169744 L157.83566,192.791341 L158.562857,204.845172 L175.497599,213 L184.601775,201.707928 C184.601775,201.707928 194.187363,197.875079 191.536548,195.798284 C188.889797,193.721488 164.857779,193.941998 164.857779,193.941998 C164.857779,193.941998 174.1143,188.780079 173.708045,186.703284 C173.30179,184.624485 163.084476,178.04329 163.084476,178.04329 C163.084476,178.04329 170.5291,130.830281 172.470999,110.3089 C170.468161,108.98785 168.711108,112.33157 168.711108,112.33157" id="Fill-19" fill="#C9C9C9"></path>
                                <path d="M175.998269,204.993911 C178.449754,197.391099 190.836838,195.87253 197.323601,196.008045 C199.477876,196.053881 203.341609,197.797645 204.141484,199.796497 C205.529794,203.260111 208.210671,210.835023 212.391561,213.10092 C214.65355,215.000129 219,242.270608 219,242.270608 L208.473971,243 C208.473971,243 202.828971,238.101517 199.874821,236.016972 C193.788993,231.849873 180.749643,235.610425 176.363299,226.054597 C174.350647,222.50529 172.417783,216.102188 175.998269,204.993911" id="Fill-21" fill="#254C5C"></path>
                                <path d="M175.704236,205.709634 C178.172484,198.104034 192.232863,218.221494 193.040215,220.221079 C194.43601,223.685963 200.615668,228.749717 204.827154,231.014452 C207.102602,232.914356 219,243 219,243 L208.152963,241.458944 C208.152963,241.458944 203.602068,237.28633 200.62571,235.20102 C194.498269,231.030401 181.470176,235.260829 177.051831,225.701497 C175.025417,222.150888 172.099268,216.821984 175.704236,205.709634" id="Fill-23" fill="#1D3B47"></path>
                                <path d="M168.317988,112.820923 L155,185.395717 L157.754357,192.989755 L158.460704,205 C158.460704,205 162.357448,196.628981 161.658994,192.989755 C160.962512,189.348532 158.727063,188.391787 158.038474,184.910354 C157.349885,181.428921 166.46728,143.824252 169.217692,115.707137 C169.217692,115.707137 172.66853,115.834969 173,115.387556 C172.556067,113.308284 172.258139,112 172.258139,112 L168.317988,112.820923 Z" id="Fill-25" fill="#B3B3B3"></path>
                                <path d="M74.6307652,12.292128 C77.01433,6.67814652 80.9389065,1.75744593 85.227722,0.888852632 C89.5145363,0.0222515166 128.356035,-0.904115193 133.357319,1.75744593 C138.356601,4.42099925 139.33124,8.1244739 140.878256,13.0451745 C143.592038,22.4781774 140.41195,77.5183053 143.920253,80.6440458 C147.428556,83.7697864 163.82532,89.4056819 167.895993,93.9916952 C171.964664,98.5797006 173.943963,109.299656 174,110.803757 C156.034206,113.582857 143.049681,124 106.805888,124 C70.5600929,124 69.8636357,117.055238 43,111.67235 C43.2561682,110.036765 44.9772981,102.514269 49.4542371,99.0996613 C53.9311762,95.6850537 67.6541852,87.9374405 73.3179034,82.676076 C76.3759109,79.9487727 71.8389324,18.7747028 74.6307652,12.292128" id="Fill-27" fill="#D9D9D9"></path>
                                <path d="M95,1 L126.082554,1.86048322 C133.366645,2.06212777 139.233487,7.83195723 139.47777,15.0312669 L141,60 L136.429274,16.5505888 C135.759008,10.2057729 130.734036,5.16665539 124.330173,4.41997158 L95,1 Z" id="Fill-29" fill="#FFFFFF"></path>
                                <path d="M74.6307652,12.7863396 C77.01433,7.14693922 80.9389065,2.2039588 85.227722,1.3314327 C89.5145363,0.460907809 88.4178163,1.29340977 93.4170982,3.96902306 C98.4183815,6.64263515 92.4304505,83.0266917 92.4304505,83.0266917 C92.4304505,83.0266917 22.2483768,116.066614 107.308218,116.927132 C132.258597,116.927132 149.934201,106.066584 158.307698,107.229285 C167.1455,108.159846 173.943963,110.233096 174,111.744007 C156.034206,114.53569 143.049681,125 106.805888,125 C70.5600929,125 69.8636357,118.023794 43,112.616533 C43.2561682,110.973543 44.9772981,103.416986 49.4542371,99.9869181 C53.9311762,96.5568499 67.6541852,88.7741572 73.3179034,83.4889705 C76.3759109,80.7493186 71.8389324,19.298266 74.6307652,12.7863396" id="Fill-31" fill="#C9C9C9"></path>
                                <path d="M56.2187956,237 C56.2187956,237 49.0753134,228.395437 53.3792614,218.607772 C77.8099707,174.054947 54.9786077,91.8032681 54.9786077,91.8032681 C54.9786077,91.8032681 62.0208906,82.5309544 65.7156584,84.2013344 C95.7956716,194.853484 56.2187956,237 56.2187956,237" id="Fill-33" fill="#3F7D15"></path>
                                <path d="M51.6231102,230.728746 C50.7791274,227.587564 50.5811314,223.7003 52.3890946,219.607914 C77.0125933,174.925495 54.0030617,92.438278 54.0030617,92.438278 C54.0030617,92.438278 55.7770256,90.1135615 58.01698,88 C87.8123734,186.118723 52.8050861,235.120771 51.6231102,230.728746" id="Fill-35" fill="#356912"></path>
                                <path d="M160.611426,230 C160.611426,230 166.778557,221.464592 162.473089,211.755591 C138.074772,185.74955 160.867727,87.7405531 160.867727,87.7405531 C160.867727,87.7405531 153.818442,78.5427612 150.118957,80.1997163 C120.000546,189.962553 160.611426,230 160.611426,230" id="Fill-37" fill="#3F7D15"></path>
                                <path d="M160.453735,230 C160.453735,230 161.984268,227.867634 162.980298,224.517909 C163.976327,221.172162 126.742561,184.565876 156.749687,83.3480935 C154.542642,81.2574992 151.872099,79.3717872 150.037826,80.1992726 C120.139178,189.962434 160.453735,230 160.453735,230" id="Fill-39" fill="#356912"></path>
                                <path d="M132.619544,21 L83.3784425,21 C81.5120443,21 80,22.4965128 80,24.3457323 L80,55.8801063 C80,57.7273331 81.5120443,59.2238459 83.3784425,59.2238459 C83.3784425,59.2238459 84.6347882,72.347725 101.369958,87 L107.997987,87 L114.628029,87 C131.365212,72.347725 132.619544,59.2238459 132.619544,59.2238459 C134.485942,59.2238459 136,57.7273331 136,55.8801063 L136,24.3457323 C136,22.4965128 134.485942,21 132.619544,21" id="Fill-41" fill="#9E9E9E"></path>
                                <path d="M130.92297,59 L86.0770296,59 C84.3781057,59 83,57.6286714 83,55.9381023 L83,27.0618977 C83,25.3713286 84.3781057,24 86.0770296,24 L130.92297,24 C132.621894,24 134,25.3713286 134,27.0618977 L134,55.9381023 C134,57.6286714 132.621894,59 130.92297,59" id="Fill-43" fill="#2B2B2B"></path>
                                <path d="M128.283232,57 L88.7147528,57 C87.2152902,57 86,55.8232238 86,54.3736849 L86,29.6243668 C86,28.1748279 87.2152902,27 88.7147528,27 L128.283232,27 C129.782694,27 131,28.1748279 131,29.6243668 L131,54.3736849 C131,55.8232238 129.782694,57 128.283232,57" id="Fill-45" fill="#212B4A"></path>
                                <path d="M126.46425,57 L89.5337362,57 C88.1339376,57 87,55.8646826 87,54.4631806 L87,30.5368194 C87,29.1353174 88.1339376,28 89.5337362,28 L126.46425,28 C127.864048,28 129,29.1353174 129,30.5368194 L129,54.4631806 C129,55.8646826 127.864048,57 126.46425,57" id="Fill-47" fill="#4175BF"></path>
                                <path d="M106,55 L90.3116967,55 C89.035347,55 88,53.9028021 88,52.5502043 L88,29.4497957 C88,28.0971979 89.035347,27 90.3116967,27 L106,27 L106,55 Z" id="Fill-49" fill="#36619E"></path>
                                <path d="M125.51463,54 L125.48537,54 C124.666093,54 124,53.2407802 124,52.3025733 L124,31.6974267 C124,30.7592198 124.666093,30 125.48537,30 L125.51463,30 C126.337349,30 127,30.7592198 127,31.6974267 L127,52.3025733 C127,53.2407802 126.337349,54 125.51463,54" id="Fill-51" fill="#66A5FF"></path>
                                <path d="M108,84 L101.805543,84 C86.1734905,70.8121892 85,59 85,59 L108,59 L108,84 Z" id="Fill-53" fill="#254C5C"></path>
                                <path d="M107,84 L113.194457,84 C128.828579,70.8121892 130,59 130,59 L107,59 L107,84 Z" id="Fill-55" fill="#37728A"></path>
                                <polygon id="Fill-57" fill="#3F7D15" points="134.605116 97 118 86.3717328 135.396883 60 152 70.6302369"></polygon>
                                <polygon id="Fill-59" fill="#3F7D15" points="143.585403 90 141 88.3237822 146.416645 80 149 81.6782644"></polygon>
                                <polygon id="Fill-61" fill="#0F1F05" points="122.87674 81 119 78.3146261 127.12326 65 131 67.6832561"></polygon>
                                <polygon id="Fill-63" fill="#000000" points="142.156384 90 141 89.0840036 145.845449 80 147 80.9159964"></polygon>
                                <polygon id="Fill-65" fill="#000000" points="127.076564 92 119 86.6328484 135.923436 60 144 65.3671516"></polygon>
                                <polygon id="Fill-67" fill="#FFFFFF" points="136.601538 61 152 70.9597831 135 97 150.175799 71.2953005"></polygon>
                                <polygon id="Fill-69" fill="#FFFFFF" points="143.351955 91 143 90.7517659 147.648045 83 148 83.2462159"></polygon>
                                <polygon id="Fill-71" fill="#3F7D15" points="81.3948839 97 98 86.3717328 80.6031167 60 64 70.6302369"></polygon>
                                <polygon id="Fill-73" fill="#3F7D15" points="73.4159836 90 76 88.3237822 70.5860656 80 68 81.6782644"></polygon>
                                <polygon id="Fill-75" fill="#0F1F05" points="93.1232604 81 97 78.3146261 88.8767396 65 85 67.6832561"></polygon>
                                <polygon id="Fill-77" fill="#000000" points="73.8436164 90 75 89.0840036 70.1563836 80 69 80.9159964"></polygon>
                                <polygon id="Fill-79" fill="#000000" points="88.923436 92 97 86.6328484 80.076564 60 72 65.3671516"></polygon>
                                <polygon id="Fill-81" fill="#FFFFFF" points="79.3984619 61 64 70.9597831 81 97 65.8242009 71.2953005"></polygon>
                                <polygon id="Fill-83" fill="#FFFFFF" points="71.6481757 91 72 90.7517659 67.3536858 83 67 83.2462159"></polygon>
                                <polygon id="Fill-85" fill="#9E9E9E" points="264.1332 245 102 209.825086 107.8668 185 270 220.174914"></polygon>
                                <polygon id="Fill-87" fill="#858585" points="264.204579 244 102 209.290167 104.945713 197 267 232.33597"></polygon>
                                <polygon id="Fill-89" fill="#C2C2C2" points="264.239949 228 110 194.430047 111.273144 189 266 223.496886"></polygon>
                                <polygon id="Fill-91" fill="#FF1F1F" points="270.666062 220.692502 297 212 284.578769 268 265 245.20655"></polygon>
                                <polygon id="Fill-93" fill="#B51616" points="267.692051 233 291 238.318578 284.533289 268 265 244.853177"></polygon>
                                <path d="M208.230007,242.904196 C206.429014,239.317581 215.656683,231.243355 220.157229,229.674814 C224.657775,228.104343 233.997764,229.647803 236.697317,230.544939 C239.398807,231.442076 245.814603,234.158565 244.914106,238.418515 C244.015546,242.680394 240.864776,245.369874 234.334724,247.83748 C231.805587,248.792496 228.763265,245.250255 224.433135,244.698468 C217.602917,243.826413 209.331905,245.099768 208.230007,242.904196" id="Fill-95" fill="#254C5C"></path>
                                <path d="M209.22622,242.694757 C207.389987,238.894655 217.199024,232.214325 221.787631,230.550375 C225.746391,229.113327 232.631276,230.836558 235.383651,231.787094 C238.138,232.737631 240.690955,236.689001 239.830098,239.626466 C238.854723,243.29983 235.361932,244.926985 233.231507,245.742607 C230.652883,246.756512 228.867986,244.48749 224.455105,243.902859 C217.550475,242.081508 209.998228,243.913079 209.22622,242.694757" id="Fill-97" fill="#1D3B47"></path>
                                <path d="M45.3962952,112.515077 C45.3962952,112.515077 43.8776887,109.951831 43.3052297,111.493377 C43.1899428,119.045157 19.8582624,174.578827 19.8582624,174.578827 C19.8582624,174.578827 11.7742664,187.361068 12.0048402,196.190472 C12.0048402,198.357834 12.2493279,200.561186 12.5474837,202.446632 C13.0463976,205.589708 15.0877706,208.258923 17.9719304,209.564539 L24.2491026,212.407703 L42.4982215,225 L49.6579346,224.070273 C49.6579346,224.070273 61.1886109,198.173888 61.9021969,195.490677 C62.5939182,190.146249 59.3897379,188.330783 59.3897379,188.330783 L45.3962952,112.515077 Z" id="Fill-99" fill="#D9D9D9"></path>
                                <path d="M45.8201684,112.515077 C45.8201684,112.515077 44.2822873,109.951831 43.7025625,111.493377 C43.5858124,119.045157 19.9580012,174.578827 19.9580012,174.578827 C19.9580012,174.578827 11.7714014,187.361068 12.0049017,196.190472 C12.0049017,198.357834 12.2524924,200.561186 12.5544324,202.446632 C13.0596787,205.589708 15.1269612,208.258923 18.0477275,209.564539 L24.4045709,212.407703 L42.8853116,225 L50.1358974,224.070273 C50.1358974,224.070273 47.5110324,218.048044 50.1962854,212.407703 C45.1720039,200.157305 20.9141445,210.846162 28.0942776,189.030577 C28.7967913,183.686149 62.5697865,192.953424 29.7851416,176.668212 C33.9438618,167.860802 57,172.329488 57,172.329488 L45.8201684,112.515077 Z" id="Fill-101" fill="#C9C9C9"></path>
                                <path d="M114.475222,250.805893 L104.160578,247.199403 C102.44929,246.600582 101.574268,244.798305 102.204528,243.174318 L107.287402,230.052583 C107.915622,228.428596 109.812521,227.595286 111.52381,228.194107 L121.838453,231.800597 C123.549742,232.399418 124.424763,234.201695 123.796543,235.827619 L118.713669,248.947417 C118.083409,250.571404 116.184471,251.404714 114.475222,250.805893" id="Fill-103" fill="#FF1F1F"></path>
                                <path d="M45.3994366,226.179318 C37.3952068,191.754228 66.2236115,191.577493 68.8351188,192.10368 C79.9719593,210.656798 95.8087144,215.559175 95.8087144,215.559175 L105.99519,210.225003 L132.084307,215.886535 C132.084307,215.886535 136.830143,219.935365 137.874346,224.546531 C138.91855,229.15569 133.222349,247.417596 129.392937,248.469971 C120.691906,250.74342 116.864491,244.967412 116.864491,244.967412 C116.864491,244.967412 95.4593155,247.943784 89.5434928,238.315764 C84.6698772,238.667225 56.4204764,236.566493 45.3994366,226.179318" id="Fill-105" fill="#254C5C"></path>
                                <path d="M47.545415,223.63274 C47.0179143,219.636448 46.8925085,216.176639 47.0855937,213.184482 C49.6275497,202.811129 91.7300643,230.511868 91.7300643,230.511868 L106.679234,210 L131,215.334462 C131,215.334462 121.96481,230.003728 120.436053,238.629969 C119.739354,242.579698 131.863907,242.689019 130.008697,248.551866 C121.331809,250.843559 117.464134,243.600027 117.464134,243.600027 C117.464134,243.600027 96.2984191,245.731788 90.398374,236.026508 C85.5413868,236.378765 58.5333532,234.101243 47.545415,223.63274" id="Fill-107" fill="#1D3B47"></path>
                                <path d="M59,189 C59,189 30.4364561,173.624517 29.0451087,177.681828 C27.6517651,181.74108 59,189 59,189" id="Fill-109" fill="#B3B3B3"></path>
                                <path d="M60,189 C60,189 41.5444212,189.062117 42.0086119,191.362335 C42.4728025,193.662553 60,189 60,189" id="Fill-111" fill="#B3B3B3"></path>
                                <path d="M45.8114997,112.775636 C45.7953764,113.051032 44.0601067,111.766521 43.675163,112.037897 C43.6328394,113.441009 43.0221695,114.765723 43,115.356719 C43,115.356719 45.6724363,115.841175 45.6643746,116.076367 C44.4934203,153.672935 60,189 60,189 C60,189 51.4506224,146.878496 45.8114997,112.775636" id="Fill-113" fill="#B3B3B3"></path>
                                <path d="M182,185 C182,185 164.638802,189.019753 165.005736,194.988892 C171.583281,195.386074 182,185 182,185" id="Fill-115" fill="#B3B3B3"></path>
                                <path d="M176,173.150756 C172.111829,178.329129 164,177.995659 164,177.995659 C164,177.995659 171.943116,171.981693 176,173.150756" id="Fill-117" fill="#B3B3B3"></path>
                                <polygon id="Fill-119" fill="#1E3D4A" points="102.875 207 96 205.314696 99.9338652 187 107 188.811102"></polygon>
                                <path d="M50.1874623,449 L95,449 C95,449 81.8233677,498.82609 85.2478935,519.143427 C86.2668598,523.954637 90.3047633,530.157088 88.9121761,546 L23.7762565,546 C15.8223258,544.75109 15.2309257,536.824622 20.1239617,532.063529 C25.0130018,527.304441 34.5792968,529.627855 37.829999,529.860396 C48.581092,523.804286 53.3862172,521.472854 53.3862172,521.472854 C53.3862172,521.472854 53.9995949,518.678343 55.1604173,516.11437 C56.3212396,513.5524 57.9076302,512.21328 59.0105113,510.990431 C58.5469816,481.461632 50.1874623,449 50.1874623,449" id="Fill-121" fill="#254C5C"></path>
                                <path d="M50.4300176,449 L67.0418161,449 C67.0418161,449 71.7794188,494.333623 66.5165338,513.903218 C60.0259778,516.525327 58.446106,520.717093 57.393529,525.610495 C52.7102657,529.174799 48.4878823,530.365573 43.0016014,533.647219 C38.8375826,536.13702 32.1357061,532.247959 26.3455263,535.744105 C20.5573591,539.238246 23.8257817,546 23.8257817,546 C15.8137186,544.75109 15.2179962,536.824622 20.1467937,532.063529 C25.071566,527.304441 34.7077776,529.627855 37.982238,529.860396 C48.8119069,523.804286 53.6521511,521.472854 53.6521511,521.472854 C53.6521511,521.472854 54.2700117,518.678343 55.4393181,516.11437 C56.6086245,513.5524 58.2066095,512.21328 59.3175512,510.990431 C58.8506337,481.461632 50.4300176,449 50.4300176,449" id="Fill-123" fill="#1A3540"></path>
                                <path d="M137,448 L181.779903,448 C177.630199,460.828774 175.037626,504.413841 175.037626,504.413841 C175.037626,504.413841 177.112478,506.763419 177.572674,513.032956 C179.133772,522.437261 192.273178,526.616952 192.273178,526.616952 C192.273178,526.616952 202.349895,524.563069 208.501057,531.142286 C213.237908,539.751411 205.234058,545 205.234058,545 L154.463666,545 C152.041683,536.840412 154.116535,527.176375 154.116535,527.176375 C154.116535,527.176375 153.541289,524.623007 152.993814,521.25448 C152.444355,517.887951 154.05901,509.994089 154.05901,509.994089 C154.05901,509.994089 150.946733,505.005232 151.061782,496.5 C151.176831,487.994768 141.669408,456.475263 137,448" id="Fill-125" fill="#254C5C"></path>
                                <path d="M168.299527,451 L178.488876,451 C174.503953,462.903692 172.01363,503.342955 172.01363,503.342955 C172.01363,503.342955 174.00711,505.522756 174.45101,511.33886 C175.037448,523.224718 190.765371,527.576392 190.765371,527.576392 C190.765371,527.576392 200.549509,524.665368 206.456643,530.770791 C211.950421,537.938371 201.011735,541 201.011735,541 C201.011735,541 214.992564,528.353194 191.47602,528.957593 C190.233913,528.856529 173.992856,528.006407 172.025847,520.149217 C171.498461,517.024176 170.533283,515.658828 170.533283,515.658828 C170.533283,515.658828 166.892484,510.421362 167.002441,502.530484 C167.112398,494.637625 172.781293,458.863135 168.299527,451" id="Fill-127" fill="#356E85"></path>
                                <path d="M136,448 L156.136682,448 C150.589443,468.546818 161.570132,507.438723 161.570132,507.438723 C161.570132,507.438723 160.0929,519.106694 160.566345,525.376231 C159.150072,541.919176 171.900595,539.479691 171.900595,539.479691 C171.900595,539.479691 189.787901,540.350793 200.945371,539.479691 C207.144868,541.221895 205.897247,545 205.897247,545 L153.889339,545 C151.408321,536.840412 153.533746,527.176375 153.533746,527.176375 C153.533746,527.176375 152.944479,524.623007 152.383659,521.25448 C151.820808,517.887951 153.47482,509.994089 153.47482,509.994089 C153.47482,509.994089 150.286681,505.005232 150.404535,496.5 C150.522388,487.994768 140.783224,456.475263 136,448" id="Fill-129" fill="#1A3540"></path>
                                <path d="M99,189.079523 C99,189.079523 -47.4500616,117.866752 41.2026602,75.6133637 L41.2026602,58 C-76.8670392,123.432424 96.3522109,201 96.3522109,201 L99,189.079523 Z" id="Fill-131" fill="#3D3D3D"></path>
                                <path d="M98,195.959091 C98,195.959091 -61.8386888,118.36965 42.0034792,66.263035 L42.0034792,58 C-75.4954503,123.432424 96.8864271,201 96.8864271,201 L98,195.959091 Z" id="Fill-133" fill="#242424"></path>
                                <polygon id="Fill-135" fill="#FF1F1F" points="52 83 42 76.0470709 42 54.9529291 52 48"></polygon>
                                <polygon id="Fill-137" fill="#B51616" points="52 82 42 75.245726 42 65 52 65"></polygon>
                                <polygon id="Fill-139" fill="#3F7D15" points="78 158 137 158 137 148 78 148"></polygon>
                                <polygon id="Fill-141" fill="#356912" points="78 159 137 159 137 154 78 154"></polygon>
                                <polygon id="Fill-142" fill="#254A0C" points="137 160 154 160 154 148 137 148"></polygon>
                                <polygon id="Fill-143" fill="#1B3609" points="152 158 139 158 139.07092 148 141.698894 155.317332"></polygon>
                                <polygon id="Fill-144" fill="#254A0C" points="61 160 78 160 78 148 61 148"></polygon>
                                <polygon id="Fill-145" fill="#1B3609" points="77 158 64 158 64.0709198 148 66.6988938 155.319456"></polygon>
                                <path d="M108,308 C125.662035,301.861882 133,278 133,278 C133,278 122.450936,291.474611 108,308" id="Fill-146" fill="#B3B3B3"></path>
                                <path d="M108,308 C89.6993865,301.999504 85,284 85,284 C85,284 92.7893661,295.306031 108,308" id="Fill-147" fill="#B3B3B3"></path>
                                <path d="M108,307.998838 C108,307.998838 80.4036574,300.118463 80.0041759,304.146346 C79.6046944,308.176269 108,307.998838 108,307.998838" id="Fill-148" fill="#B3B3B3"></path>
                                <path d="M108,308 C108,308 82.6051469,329.591369 85.1838963,332.600695 C88.6910772,336.69165 108,308 108,308" id="Fill-149" fill="#B3B3B3"></path>
                                <path d="M108,306.271496 C108,306.271496 135.316363,303.41063 132.841437,306.271496 C129.480087,310.16063 108,306.271496 108,306.271496" id="Fill-150" fill="#B3B3B3"></path>
                                <path d="M80.746917,451 L91,451 C91,451 79.3551138,504.445702 81.2673477,517.278157 C82.6571569,525.001431 87.6979569,527.476348 85.1775569,544 L26,544 L75.6163875,541.482725 C79.3451439,541.29514 82.2523774,538.182836 82.2603534,534.406923 C82.2723173,529.981521 81.2892816,524.109897 77.0959261,519.037023 C76.5754954,521.322337 72.230597,481.237556 80.746917,451" id="Fill-151" fill="#356E85"></path>
                                <path d="M38.303717,72 C-44.7892136,117.9531 96,190 96,190 C96,190 -52.2585796,117.9531 38.303717,72" id="Fill-152" fill="#BFBFBF"></path>
                                <path d="M106,320 C106,320 88.4520209,385.965961 89.6234992,394.463798 C90.7969939,402.959641 95.4647603,420.001197 84,445 C101.106406,435.728181 95.8216479,400.258685 94.5977454,394.463798 C93.3738429,388.668911 106,320 106,320" id="Fill-153" fill="#FFFFFF"></path>
                                <path d="M156.792244,255 C161.29924,281.576008 164.575067,289.969276 168.137304,299.062652 C171.699542,308.154022 167.832993,365.54881 180.711546,405.194163 C183.092337,426.422071 169.95323,445 169.95323,445 C169.95323,445 180.319719,418.734928 174.871942,407.699706 C163.033619,366.55183 165.688888,309.574297 163.14699,301.604303 C160.605091,293.636316 153.671557,276.681272 156.792244,255" id="Fill-154" fill="#FFFFFF"></path>
                                <path d="M173.144096,119 C173.144096,119 179.472029,164.00761 177.680559,171 C171.742705,146.836984 173.144096,119 173.144096,119" id="Fill-155" fill="#FFFFFF"></path>
                                <path d="M179.003627,172.412928 C178.829267,174.68716 185,178 185,178 C185,178 179.179991,170.138696 179.003627,172.412928" id="Fill-156" fill="#FFFFFF"></path>
                                <path d="M185,185.023592 C185,185.023592 190.902876,184.735218 191.870344,186.174885 C192.835926,187.612351 193,195 193,195 C193,195 191.438472,189.435049 190.289958,187.900725 C189.137671,186.366401 185,185.023592 185,185.023592" id="Fill-157" fill="#FFFFFF"></path>
                                <path d="M37.0000121,174.286391 C37.0175003,176.653162 56,185 56,185 C56,185 36.9825238,171.919621 37.0000121,174.286391" id="Fill-158" fill="#FFFFFF"></path>
                                <path d="M59,190 C59,190 41.7084252,192.928483 43.0771738,195.495426 C44.4480412,198.062368 59,190 59,190" id="Fill-159" fill="#FFFFFF"></path>
                                <path d="M161,91 C169.85087,95.0368949 171,108 171,108 C171,108 166.745649,98.5833849 161,91" id="Fill-160" fill="#FFFFFF"></path>
                                <path d="M133.716088,219.000071 C130.658254,218.956395 124,239 124,239 C124,239 132.250263,222.379055 134.082019,222.265892 C135.915878,222.14876 140,226.417158 140,226.417158 C140,226.417158 136.773922,219.043748 133.716088,219.000071" id="Fill-161" fill="#367087"></path>
                                <path d="M58.0004284,197.01791 C58.1187449,195.354749 64.6383929,194.480885 67.4841091,195.328573 C70.3277854,196.174248 79.884904,211.968234 97,217 C82.3001929,215.713366 57.8821119,198.679057 58.0004284,197.01791" id="Fill-162" fill="#367087"></path>
                                <path d="M147,27 C147,27 156.24168,27.809559 161.187589,33.0757199 C166.129447,38.3418809 163.054963,87 163.054963,87 C163.054963,87 162.95167,41.6183795 158.479693,35.7682084 C154.007717,29.9160234 147,27 147,27" id="Fill-163" fill="#D9D9D9"></path>
                            </g>
                        </g>
                    </g>
                </g>
            </g>
        </g>
    </g>
</svg>