<?xml version="1.0" encoding="UTF-8"?>
<svg width="61px" height="61px" viewBox="0 0 61 61" version="1.1" xmlns="http://www.w3.org/2000/svg" xmlns:xlink="http://www.w3.org/1999/xlink">
    <!-- Generator: sketchtool 52.5 (67469) - http://www.bohemiancoding.com/sketch -->
    <title>7B918715-6E0F-494F-82D7-A0A8F9E6C93A</title>
    <desc>Created with sketchtool.</desc>
    <g id="Page-1" stroke="none" stroke-width="1" fill="none" fill-rule="evenodd" opacity="0.951474144">
        <g id="Pocetna-v1" transform="translate(-1095.000000, -553.000000)" fill="#0093DD">
            <g id="Group">
                <g id="O-nama">
                    <g id="Image" transform="translate(1039.000000, 106.000000)">
                        <g id="Symbol-bg">
                            <g id="mosquito" transform="translate(56.000000, 447.000000)">
                                <path d="M60.8786471,30.2664536 C60.8513447,30.0953831 60.7809979,29.9337823 60.6760927,29.7962863 C58.1353689,26.4789194 43.0692298,23.5036935 36.8511652,22.4007742 C37.119885,20.7110988 38.0538245,16.7913569 40.9524314,16.7913569 C42.7491027,16.7913569 44.1311955,16.2582218 45.0599697,15.2067097 C46.4505483,13.6304254 46.2028588,11.5041573 46.1912983,11.4140101 C46.1199677,10.8410282 45.5889233,10.4327218 45.0273789,10.5062661 C44.455381,10.5734153 44.0439999,11.094006 44.1080745,11.6669879 C44.1091814,11.6806391 44.241389,12.9724617 43.4763064,13.8289214 C42.9630947,14.4019032 42.1130302,14.6926371 40.9523084,14.6926371 C36.7251068,14.6926371 35.3093164,19.2367681 34.8569818,21.6107258 C34.4015725,20.4877601 33.7812418,19.5610766 33.0466592,18.9063105 C34.0184777,18.040504 34.6555342,16.7170746 34.6555342,15.2174093 C34.6555342,13.0230081 33.3121814,11.1906714 31.5071471,10.6627016 L31.5071471,1.04942137 C31.5071471,0.470167339 31.0369798,0 30.4577257,0 C29.8773648,0 29.4083043,0.470167339 29.4083043,1.04942137 L29.4083043,10.6624556 C27.6021632,11.1903024 26.2599173,13.0226391 26.2599173,15.2171633 C26.2599173,16.7168286 26.8958668,18.0402581 27.8676854,18.9060645 C27.1331027,19.5609536 26.5138789,20.4876371 26.0573628,21.6104798 C25.6050281,19.2366452 24.1893608,14.6923911 19.9631431,14.6923911 C18.8014374,14.6923911 17.9523568,14.4016573 17.4381612,13.8286754 C16.6815644,12.9818085 16.8031955,11.7076956 16.8074999,11.6678488 C16.8746491,11.0948669 16.4685564,10.5742762 15.8955745,10.5029456 C15.3173043,10.4284173 14.7957298,10.8388145 14.7243991,11.4138871 C14.7128386,11.5041573 14.4641652,13.6303024 15.8557277,15.2065867 C16.7833951,16.2580988 18.1665947,16.7912339 19.963266,16.7912339 C22.8493285,16.7912339 23.7895402,20.709869 24.0624414,22.4006512 C17.8433931,23.5048004 2.77934467,26.4789194 0.239727734,29.7962863 C0.133715638,29.9337823 0.0644757183,30.0953831 0.036189428,30.2664536 C0.0225382183,30.3535262 -0.295498072,32.4388407 1.24093943,34.243875 C2.64197169,35.8914899 5.05048782,36.7279032 8.31644749,36.7279032 L8.33637088,36.7279032 C8.35420354,36.7290101 8.60927209,36.7468427 9.04795556,36.7468427 C11.6349213,36.7468427 20.612006,36.1297097 25.3272076,28.0247036 C25.4741733,29.1486532 25.758512,30.1813488 26.1510765,31.0818367 L20.3402116,35.9250645 C20.2131693,36.0310766 20.1124455,36.165375 20.0484939,36.317506 L16.9001068,43.6637016 C16.6713568,44.1968367 16.9179394,44.8139698 17.4510745,45.0416129 C17.5853729,45.0992923 17.7260664,45.1277016 17.8645463,45.1277016 C18.270639,45.1277016 18.6590221,44.888375 18.8289858,44.4906452 L21.877633,37.3763972 L27.2424354,32.9056875 C27.5037761,33.2267984 27.7860241,33.5080625 28.0851209,33.7462823 C27.3966572,34.5417419 26.8667197,35.6909032 26.5581531,37.0678306 C26.5371229,37.0898448 26.5088366,37.1004214 26.4889132,37.1255101 L22.2911048,42.3728629 C22.0612479,42.661506 21.9982802,43.0497661 22.1283971,43.3960887 L25.1161673,51.3635988 L21.1230039,59.3500484 C20.8637539,59.8684254 21.0736874,60.4992097 21.5920644,60.7584597 C21.7432116,60.8329879 21.9027217,60.8686532 22.0611249,60.8686532 C22.4463104,60.8686532 22.815631,60.656629 23.0003527,60.2882923 L27.1981612,51.8925524 C27.3282781,51.6323185 27.3451269,51.3279335 27.2421894,51.0550323 L24.3026289,43.2176391 L26.2872197,40.7377923 C26.5159697,44.4906452 28.2308568,47.2255605 30.4577257,47.2255605 C32.6836108,47.2255605 34.3984979,44.4906452 34.6272479,40.7377923 L36.6118386,43.2176391 L33.6722781,51.0550323 C33.5704475,51.3279335 33.5861894,51.6321956 33.7163064,51.8925524 L37.9141148,60.2882923 C38.0988366,60.656629 38.4682802,60.8696371 38.8544495,60.8686532 C39.0118689,60.8686532 39.1713789,60.8329879 39.3225261,60.7584597 C39.8410261,60.4992097 40.0508366,59.8685484 39.7915866,59.3500484 L35.7994072,51.3635988 L38.7861935,43.3960887 C38.9163104,43.0497661 38.8544495,42.661506 38.6234858,42.3728629 L34.4256773,37.1255101 C34.4057539,37.1002984 34.3773447,37.0898448 34.3564374,37.0667238 C34.0489777,35.6909032 33.5179334,34.5417419 32.8294697,33.7462823 C33.1296733,33.5080625 33.4108144,33.2267984 33.673262,32.9056875 L39.0370806,37.3763972 L42.0868346,44.4906452 C42.2567983,44.888375 42.6440745,45.1277016 43.0512741,45.1277016 C43.1897539,45.1277016 43.3293406,45.0994153 43.463762,45.0416129 C43.9968971,44.8138468 44.2434798,44.1968367 44.0158366,43.6637016 L40.8674495,36.317506 C40.802391,36.165375 40.7016673,36.0309536 40.5746249,35.9250645 L34.7647439,31.0818367 C35.1562015,30.1813488 35.4405402,29.1487762 35.587506,28.0247036 C40.3089798,36.142254 49.3008225,36.7489335 51.8237136,36.7489335 C52.2455483,36.7489335 52.4880725,36.7320847 52.4964354,36.7311008 C55.8557398,36.7311008 58.2705281,35.8946875 59.674758,34.243875 C61.2103346,32.4388407 60.8934052,30.3535262 60.8786471,30.2664536 Z" id="Path"></path>
                            </g>
                        </g>
                    </g>
                </g>
            </g>
        </g>
    </g>
</svg>