<?xml version="1.0" encoding="UTF-8"?>
<svg width="25px" height="28px" viewBox="0 0 25 28" version="1.1" xmlns="http://www.w3.org/2000/svg" xmlns:xlink="http://www.w3.org/1999/xlink">
    <!-- Generator: sketchtool 52.5 (67469) - http://www.bohemiancoding.com/sketch -->
    <title>DA069D8F-8189-4093-AEFE-8B1704B13DBF</title>
    <desc>Created with sketchtool.</desc>
    <defs>
        <filter x="-38.4%" y="-137.1%" width="176.8%" height="374.3%" filterUnits="objectBoundingBox" id="filter-1">
            <feOffset dx="0" dy="10" in="SourceAlpha" result="shadowOffsetOuter1"></feOffset>
            <feGaussianBlur stdDeviation="20" in="shadowOffsetOuter1" result="shadowBlurOuter1"></feGaussianBlur>
            <feColorMatrix values="0 0 0 0 0   0 0 0 0 0   0 0 0 0 0  0 0 0 0.3 0" type="matrix" in="shadowBlurOuter1" result="shadowMatrixOuter1"></feColorMatrix>
            <feMerge>
                <feMergeNode in="shadowMatrixOuter1"></feMergeNode>
                <feMergeNode in="SourceGraphic"></feMergeNode>
            </feMerge>
        </filter>
    </defs>
    <g id="Page-1" stroke="none" stroke-width="1" fill="none" fill-rule="evenodd">
        <g id="Pocetna-v1" transform="translate(-1463.000000, -8979.000000)" fill="#0093DD">
            <g id="Group-4" filter="url(#filter-1)" transform="translate(1430.000000, 8958.000000)">
                <g id="PDF-icon" transform="translate(33.000000, 21.000000)">
                    <path d="M6.57471506,14.3417423 C6.57471506,13.588029 6.0513539,13.1381996 5.12776044,13.1381996 C4.75100544,13.1381996 4.49575318,13.1745336 4.361902,13.2109691 L4.361902,15.631216 C4.52014519,15.6671434 4.71467151,15.679441 4.98145917,15.679441 C5.96684574,15.679441 6.57471506,15.18098 6.57471506,14.3417423 Z" id="Path"></path>
                    <path d="M12.2912886,13.16249 C11.8773866,13.16249 11.6104973,13.1989256 11.4518475,13.235412 L11.4518475,18.5977423 C11.6101924,18.6347877 11.8655971,18.6347877 12.0967114,18.6347877 C13.7745263,18.6465263 14.8689655,17.7228312 14.8689655,15.7649655 C14.8812632,14.0619456 13.8838838,13.16249 12.2912886,13.16249 Z" id="Path"></path>
                    <path d="M23.2448784,10.0118548 L22.5727768,10.0118548 L22.5727768,6.76893648 C22.5727768,6.74871143 22.5695753,6.72833394 22.566882,6.70785481 C22.5658149,6.5790853 22.5248566,6.45260254 22.4366897,6.35239201 L17.0401089,0.187716878 C17.0384828,0.186141561 17.0369074,0.185582577 17.0357895,0.183854809 C17.0036225,0.147927405 16.9661198,0.118047187 16.9264828,0.0921814882 C16.9147441,0.0843049002 16.9029038,0.0776987296 16.8906062,0.0708892922 C16.8562541,0.052137931 16.8198185,0.0365880218 16.7823158,0.0253575318 C16.7721525,0.0225117967 16.7630054,0.0183448276 16.7528421,0.0157023593 C16.7120871,0.00604718693 16.6697568,0 16.6268675,0 L3.36406534,0 C2.75843194,0 2.26642468,0.492566243 2.26642468,1.09769147 L2.26642468,10.0116007 L1.5944755,10.0116007 C0.728101633,10.0116007 0.0256116152,10.7137858 0.0256116152,11.5804646 L0.0256116152,19.7388312 C0.0256116152,20.6049002 0.728101633,21.3075426 1.5944755,21.3075426 L2.2664755,21.3075426 L2.2664755,26.892196 C2.2664755,27.4972704 2.75848276,27.9898875 3.36411615,27.9898875 L21.4751869,27.9898875 C22.0802613,27.9898875 22.5728276,27.4973212 22.5728276,26.892196 L22.5728276,21.3075426 L23.2449292,21.3075426 C24.111049,21.3075426 24.8136915,20.6049002 24.8136915,19.7388312 L24.8136915,11.5807187 C24.8136407,10.7140907 24.1109982,10.0118548 23.2448784,10.0118548 Z M3.36406534,1.09789474 L16.0780472,1.09789474 L16.0780472,6.71380036 C16.0780472,7.01702359 16.3240508,7.26262069 16.6268675,7.26262069 L21.4751361,7.26262069 L21.4751361,10.0122105 L3.36406534,10.0122105 L3.36406534,1.09789474 Z M16.8385699,15.7035281 C16.8385699,17.2725445 16.2672377,18.3543811 15.4756661,19.0235354 C14.6132559,19.7409147 13.2996951,20.0812341 11.6951071,20.0812341 C10.7346715,20.0812341 10.0538802,20.0204065 9.59124501,19.959833 L9.59124501,11.9096552 C10.2721379,11.8004501 11.160363,11.7396225 12.0967114,11.7396225 C13.6523122,11.7396225 14.6618367,12.0195209 15.4525953,12.6149909 C16.3034192,13.2474047 16.8385699,14.2564719 16.8385699,15.7035281 Z M2.52558984,19.9963194 L2.52558984,11.9096552 C3.09682033,11.8129002 3.89977495,11.7396225 5.03064973,11.7396225 C6.17356806,11.7396225 6.98846461,11.9585408 7.53545554,12.3965808 C8.05846098,12.8097713 8.41026497,13.4908675 8.41026497,14.2934664 C8.41026497,15.0963194 8.14347731,15.7772123 7.65670417,16.2389837 C7.02444283,16.8349619 6.08824682,17.1026642 4.99355354,17.1026642 C4.75075136,17.1026642 4.5311216,17.0903158 4.36164791,17.0659238 L4.36164791,19.9965227 L2.52558984,19.9965227 L2.52558984,19.9963194 Z M21.4751869,26.5950708 L3.36406534,26.5950708 L3.36406534,21.3075426 L21.4751869,21.3075426 L21.4751869,26.5950708 Z M23.0655971,13.3204283 L19.9155209,13.3204283 L19.9155209,15.1930744 L22.8584682,15.1930744 L22.8584682,16.7010091 L19.9155209,16.7010091 L19.9155209,19.9963702 L18.0559855,19.9963702 L18.0559855,11.8004501 L23.0655971,11.8004501 L23.0655971,13.3204283 Z" id="Shape" fill-rule="nonzero"></path>
                </g>
            </g>
        </g>
    </g>
</svg>