<?xml version="1.0" encoding="UTF-8"?>
<svg width="67px" height="47px" viewBox="0 0 67 47" version="1.1" xmlns="http://www.w3.org/2000/svg" xmlns:xlink="http://www.w3.org/1999/xlink">
    <!-- Generator: sketchtool 52.5 (67469) - http://www.bohemiancoding.com/sketch -->
    <title>D0ABF38F-92D6-457D-B840-1099A00E5759</title>
    <desc>Created with sketchtool.</desc>
    <g id="Page-1" stroke="none" stroke-width="1" fill="none" fill-rule="evenodd">
        <g id="Pocetna-v1" transform="translate(-1091.000000, -293.000000)" fill="#232323">
            <g id="Group">
                <g id="O-nama">
                    <g id="Image" transform="translate(1039.000000, 106.000000)">
                        <g id="Hero-grafika" transform="translate(37.000000, 155.000000)">
                            <g id="Rat" transform="translate(15.000000, 32.000000)">
                                <path d="M66.7562571,40.7169478 C66.4279194,39.0683212 66.0950104,37.4195759 65.731359,35.7791331 C65.502334,34.7450054 65.278109,33.7016264 64.9429143,32.7018944 C64.0924134,30.1647885 62.7439775,27.9358215 60.9212634,26.0171285 C60.5621833,25.6391305 60.374872,25.1770406 60.5846972,24.6273007 C60.663096,24.4225863 60.7277807,24.2111114 60.787094,23.9997551 C61.1661738,22.6404091 61.0099477,21.3532942 60.1328186,20.2571354 C59.2930604,19.2074703 58.1558212,18.8610214 56.8810985,19.1769885 C55.643518,19.4838228 54.9273007,20.3611531 54.6526764,21.6295281 C54.5730205,21.9987493 54.5598779,22.3833894 54.5161071,22.7624549 C53.9733728,22.7649456 53.1075579,22.4802906 52.5157958,22.0472593 C52.0495174,21.7055547 51.6139815,21.3180682 51.1655314,20.9496772 C50.8191368,20.6652595 50.4954848,20.3419389 50.1233764,20.0999822 C48.9479663,19.3378185 47.6711864,18.8281675 46.3195506,18.5049655 C44.7766035,18.1358629 43.2135424,18.0510595 41.6431671,18.1318303 C40.1860472,18.2069081 38.7424129,18.4246691 37.3166068,18.74882 C32.6753085,19.8046526 28.345891,21.5646505 24.7490334,24.902823 C24.0239019,25.5754389 23.382312,26.3608494 22.7831215,27.1596624 C21.7209668,28.5755836 20.9446362,30.1668048 20.3035034,31.8323921 C19.7928829,33.1587656 19.4678594,34.5123 19.592886,35.9543145 C19.6040859,36.0835953 19.5798577,36.2214158 19.5476296,36.3486803 L19.6184856,36.4822309 C19.3144904,37.4505322 18.8262696,38.2819619 17.9580547,38.8419019 C17.2144092,39.3214269 16.4114505,39.6238728 15.5609496,39.8276383 C14.3215405,40.1247469 13.0681889,40.2549765 11.8110658,40.0769486 C9.08516591,39.6907667 6.83491566,38.4089891 5.11391421,36.1475241 C4.24387077,35.0040414 3.63816603,33.7284314 3.23017246,32.3478548 C2.88972068,31.1946464 2.77086541,30.0090585 2.78857942,28.8003424 C2.82583598,26.2675063 3.43382639,23.8686952 4.27838451,21.5134126 C4.83506146,19.9606198 5.54293602,18.4938165 6.42372214,17.1141888 C7.66404545,15.1707071 8.9360254,13.2529629 10.4897152,11.5559449 C11.790609,10.1351609 13.2589287,8.91470274 14.7408482,7.70978202 C16.0072283,6.68004271 17.2825225,5.66133377 18.5321028,4.60988952 C19.7645405,3.57279661 20.97595,2.50818707 22.1808453,1.43634254 C22.4088417,1.23352588 22.6182098,0.966424643 22.739465,0.684734839 C22.9264335,0.249212752 22.6764946,-0.0580959981 22.2227875,0.00927234226 C22.004048,0.0416518439 21.7751374,0.107478303 21.5853118,0.220747256 C20.9992639,0.570517037 20.4061304,0.916610025 19.8588247,1.32544571 C17.5372613,3.05923162 15.2187835,4.79847343 12.9247625,6.57056915 C11.6802107,7.53175407 10.4478873,8.51737186 9.28219138,9.57771159 C8.44620455,10.3379775 7.68473084,11.2003635 6.97034209,12.0868264 C6.08064183,13.1915249 5.22179822,14.3312122 4.44306763,15.5215443 C2.88377792,17.905411 1.62116924,20.4488031 0.812610558,23.2226471 C0.134106964,25.5502944 -0.13583164,27.9228935 0.0647366285,30.3400885 C0.198105955,31.9428145 0.454559057,33.5367637 1.01729305,35.046621 C1.39728706,36.0662788 1.92276449,37.0064704 2.62869623,37.8432374 C4.24672787,39.761456 6.19618287,41.1754795 8.46746136,42.1239736 C8.78871344,42.2579986 9.11602257,42.3764862 9.44058888,42.5023275 C10.0094942,42.6368269 10.5782852,42.771445 11.1476477,42.9058259 C11.7458097,42.9503032 12.3431717,43.0195692 12.9419051,43.0355811 C14.5743366,43.0786351 16.139569,42.7543657 17.6294884,42.0517424 C18.2631927,41.7527361 18.8907257,41.4375993 19.5323156,41.1579258 C20.2765324,40.8328261 21.0378918,40.6023742 21.8352507,40.6595424 L21.9480489,40.8719662 C22.0161621,40.8859617 22.0818754,40.9338786 22.1392459,40.978949 C23.649965,42.1703486 25.360338,42.7906592 27.2468226,42.9144841 C27.3438496,42.9208888 27.4542479,42.9397472 27.531161,42.9938317 C28.2417783,43.4995687 29.0437085,43.7889679 29.8448388,44.088923 C30.991335,44.5176846 32.1762306,44.5665503 33.3741546,44.5321545 C34.6176779,44.4963354 35.7232604,44.8369725 36.6459887,45.7554592 C36.8595854,45.967883 37.1803803,46.0767635 37.4667758,46.1938279 C37.711572,46.2945245 37.9637966,46.359758 38.062195,46.6530712 C38.0933945,46.7459399 38.1176227,46.8412993 38.1484794,46.9476891 C38.4791027,46.6438199 38.5368161,46.319076 38.2543063,46.0002625 C37.7828851,45.4679577 37.3450634,44.8907012 36.7243875,44.5213614 C36.6656456,44.4864911 36.610675,44.4440301 36.5537616,44.4052459 C36.5593615,44.3694268 36.5645043,44.3340821 36.5701042,44.2983816 C37.0905532,44.3177145 37.6118021,44.3299309 38.1321368,44.357922 C38.7173847,44.3899457 39.1888058,44.6565725 39.5767997,45.1122576 C39.7777108,45.3484026 40.0043358,45.5647404 40.2407892,45.7626942 C40.5891266,46.0539911 40.9774633,46.138676 41.4093423,45.945585 C41.4974552,45.9058519 41.6243103,45.9218638 41.7231659,45.9504479 C42.0368752,46.0422491 42.1408736,46.319076 42.2011012,46.6259104 C42.4901252,46.3888165 42.5783524,46.1478086 42.4118407,45.8680165 C42.2869284,45.6579649 42.0799603,45.4993884 41.9027059,45.3251558 C41.8313927,45.2549409 41.726023,45.2191218 41.6635097,45.1432138 C41.4070566,44.8325841 41.1612319,44.5127031 40.9114072,44.1956686 C41.1492321,44.3664616 41.3571145,44.5722434 41.5507115,44.7909533 C41.7399656,45.0058678 41.923277,45.2211381 42.226358,45.2541107 C42.7186931,45.3072463 43.1705716,45.4181431 43.2311421,46.0665634 C43.5387944,45.7950737 43.5831366,45.5628427 43.4326247,45.2313383 C43.3001696,44.9405158 43.0726303,44.7793299 42.7924062,44.6762611 C42.7265786,44.6520654 42.6445228,44.6322582 42.6053234,44.5809017 C42.2840713,44.1637636 41.971162,43.7393905 41.6699096,43.3362479 C41.7054519,43.3368409 41.7967647,43.3406363 41.8881919,43.3382642 C42.9844032,43.3102731 44.084843,43.3309106 45.1759115,43.2385163 C46.4068635,43.1344987 47.6299299,42.9259889 48.8572249,42.7712078 C48.924881,42.7624309 49.0361935,42.8131944 49.068993,42.8719045 C49.3985878,43.4582937 49.8695518,43.8271591 50.5106846,43.9920217 C51.4702123,44.2388413 52.3683696,44.5819691 52.8714473,45.5884616 C53.050416,45.946178 53.3870964,45.9548363 53.6202355,45.6775349 C53.5330369,45.6277203 53.4500668,45.5798034 53.3758965,45.5372237 C53.7000057,44.9216574 53.2429844,44.4870842 53.0555587,43.993445 C53.4933804,43.9532375 53.9657158,44.2305389 54.1526843,44.6065206 C54.2622826,44.8272468 54.3895949,45.0391962 54.5150786,45.2506711 C54.6045629,45.4021312 54.7249039,45.462146 54.8829585,45.3455561 C55.0064994,45.2541107 55.1295832,45.1626653 55.2531241,45.0707454 C55.2340387,44.9129991 55.258724,44.7285664 55.1874109,44.6023694 C55.0182707,44.3013468 54.8037598,44.0273664 54.60742,43.7429487 C54.6265054,43.7225484 54.6455908,43.7022667 54.6647905,43.6824595 C54.8825014,43.8944088 55.0951837,44.1115768 55.3198659,44.3153423 C55.4480925,44.4319323 55.5926616,44.5312057 55.7363165,44.6284628 C55.814601,44.681717 55.9414561,44.6908497 55.9838554,44.7605901 C56.0757397,44.9129991 56.1275103,45.0916201 56.2048805,45.2818645 C56.3993918,45.2212567 56.4973331,45.0505824 56.4493338,44.8201305 C56.4031631,44.5990484 56.3279643,44.3792711 56.2352801,44.1740823 C56.0109407,43.678071 55.5912902,43.3752693 55.1525543,43.0814817 C55.5390625,42.9066561 55.6253468,42.9531497 55.8235151,43.4205769 C56.1228247,43.1534757 55.96477,42.65699 55.5496909,42.4803853 C55.1805538,42.3235879 54.8275308,42.1251596 54.4675365,41.9446409 C54.4689079,41.9126173 54.4707364,41.8811866 54.4721078,41.8492815 C55.4732349,41.7864202 56.4739049,41.6962795 57.4764034,41.6697117 C58.2242773,41.6497859 58.9447231,41.8739516 59.6109983,42.2107933 C60.5739545,42.6980277 61.5003399,43.2695912 62.5370093,43.579272 C63.4868229,43.863334 64.3853231,43.7941865 65.1453111,43.0421044 C65.2035959,42.9845804 65.2661092,42.932275 65.3201655,42.8834093 C65.8152434,43.1344987 66.2256369,43.0686722 66.5417462,42.6288803 C66.6998009,42.409103 66.8289417,42.1202968 66.8498556,41.8522467 C66.879798,41.4800603 66.8304274,41.0885412 66.7562571,40.7169478 Z" id="Path"></path>
                            </g>
                        </g>
                    </g>
                </g>
            </g>
        </g>
    </g>
</svg>