<?xml version="1.0" encoding="UTF-8"?>
<svg width="60px" height="57px" viewBox="0 0 60 57" version="1.1" xmlns="http://www.w3.org/2000/svg" xmlns:xlink="http://www.w3.org/1999/xlink">
    <!-- Generator: sketchtool 52.5 (67469) - http://www.bohemiancoding.com/sketch -->
    <title>976FB4B8-D637-4073-9E0C-9E476C34EEB4</title>
    <desc>Created with sketchtool.</desc>
    <g id="Page-1" stroke="none" stroke-width="1" fill="none" fill-rule="evenodd" opacity="0.951474144">
        <g id="Pocetna-v1" transform="translate(-1584.000000, -274.000000)" fill="#0093DD">
            <g id="Group">
                <g id="O-nama">
                    <g id="Image" transform="translate(1039.000000, 106.000000)">
                        <g id="Symbol-bg">
                            <g id="Shape-2" transform="translate(545.000000, 168.000000)">
                                <path d="M59.9959305,11.1171331 C60.1216786,8.91285811 57.2959063,7.98278428 56.6837743,6.49234098 C57.1037253,6.0668322 57.5687559,3.41147144 57.4501256,2.57905536 C57.333868,1.77454151 55.4832362,3.61376249 55.1558168,3.24638333 C54.7833178,2.82087456 55.4144307,0.988629125 54.7287479,0.0446041935 C54.379975,-0.43670901 53.5827798,3.13012411 52.9801382,3.39752033 C52.5459515,3.58818546 51.7890906,2.58138055 51.0156214,1.188595 C49.7510231,-1.08776069 50.4485689,3.81372837 50.5695717,4.74845256 C47.2170812,5.25069242 45.117326,7.42939036 44.1730293,10.2568148 C43.1338284,13.3655865 40.2321327,20.2853358 34.8937719,20.6131868 C28.4806212,21.0084682 21.3272178,15.1304016 17.9533738,11.7449329 C16.157312,9.94756524 14.8452615,4.7717044 11.6991876,5.17163615 C10.2779973,5.35300054 9.16050048,7.32010668 7.49730453,7.74329027 C7.49730453,7.74329027 -1.04407269,9.81037935 0.106640629,12.0588328 C0.785205597,13.3818628 4.51731292,15.1187757 7.36681126,16.2906687 C7.49255932,16.3394976 7.56136486,16.4790087 7.52103057,16.6045686 C7.48069629,16.734779 7.35020303,16.8115101 7.21733716,16.7905834 C4.77355424,16.3650746 2.34400694,16.2743924 4.77355424,18.3182297 C5.37382325,18.8227947 7.62542518,19.8877292 9.73704344,20.8340793 C9.86279149,20.8875586 9.92685182,21.0293949 9.87939973,21.15728 C9.83432024,21.2851652 9.69908176,21.3595711 9.56384329,21.3270185 C7.85319524,20.9201112 6.29913911,20.7433972 6.3940433,21.4758303 C6.60520513,23.1267113 13.1037696,27.9723959 13.1037696,27.9723959 C12.2804758,28.9629246 15.6305937,32.5181318 16.1644298,32.9645672 C15.3957058,32.7134473 14.5676668,33.0017702 15.6566924,33.9667217 C17.2605732,35.3943851 17.6164639,37.6963178 18.9878295,39.0309737 C23.018885,42.9582104 29.0666546,39.9959253 32.1818847,46.6273517 C32.3432218,46.971479 33.0526306,48.3642645 33.6623901,49.5803361 C33.8450806,49.9430649 33.8450806,50.3685736 33.6647627,50.7313024 C33.4820721,51.0940312 33.1380444,51.3567771 32.7347016,51.4381585 L28.7036461,52.2566235 C28.1176127,52.3752079 27.7047795,52.9076752 27.761722,53.5052476 C27.8234097,54.1423482 28.4023253,54.6166858 29.0547916,54.5539058 L33.0407676,54.1888519 C33.1736335,54.1772259 33.3017541,54.2446563 33.3658145,54.3609155 C33.4298748,54.4771748 33.4132666,54.619011 33.3254802,54.7213191 L33.0075511,55.0956738 C32.5899727,55.588613 32.6587782,56.3210461 33.1617705,56.7326038 C33.3824227,56.911643 33.650527,57 33.9186314,57 C34.2602865,57 34.5948237,56.8558386 34.8320842,56.5791416 L36.5095158,54.6004095 C36.8274448,54.2260548 37.3304371,54.0563163 37.816821,54.1586245 L43.6913905,55.3956227 C44.2750513,55.5188574 44.8729477,55.1933316 45.0675013,54.6259866 C45.2762905,54.0167882 44.9393806,53.3564358 44.3177581,53.1518196 L39.0173591,51.4149067 C38.5357203,51.2591193 38.1845748,50.8429113 38.1181418,50.3499722 C37.9900212,49.4245487 37.8239389,48.2573061 37.7076812,47.3644352 C37.6293853,46.7645376 38.0042568,46.1971925 38.5926628,46.0228037 C41.2831966,45.2322409 42.7233677,42.0118603 44.4696048,39.8424631 C45.2691727,38.8426338 46.3985325,38.1636799 47.6678761,37.9102348 C54.6148629,36.5220996 56.9708594,29.4512133 57.7016217,21.9734198 C58.1334358,17.5602195 56.0170723,15.7721526 54.8972029,12.4866668 C56.3041575,12.0727839 57.8463506,10.0103452 59.9959305,11.1171331 Z M51.999,8.79 C51.563,8.79 51.213,8.438 51.213,8.002 C51.213,7.562 51.565,7.21 51.999,7.21 C52.445,7.21 52.787,7.562 52.787,8.002 C52.787,8.438 52.443,8.79 51.999,8.79 Z" id="Shape"></path>
                            </g>
                        </g>
                    </g>
                </g>
            </g>
        </g>
    </g>
</svg>