<?xml version="1.0" encoding="UTF-8"?>
<svg width="18px" height="18px" viewBox="0 0 18 18" version="1.1" xmlns="http://www.w3.org/2000/svg" xmlns:xlink="http://www.w3.org/1999/xlink">
    <!-- Generator: sketchtool 52.5 (67469) - http://www.bohemiancoding.com/sketch -->
    <title>4D5437BB-DE7F-4FEA-9860-E4488504B693</title>
    <desc>Created with sketchtool.</desc>
    <g id="Page-1" stroke="none" stroke-width="1" fill="none" fill-rule="evenodd">
        <g id="Pocetna-v1" transform="translate(-1370.000000, -26.000000)" fill="#0093DD">
            <g id="Group">
                <g id="Header" transform="translate(240.000000, 17.000000)">
                    <g id="Kontakt" transform="translate(1130.000000, 8.000000)">
                        <g id="Phone" transform="translate(0.000000, 1.000000)">
                            <g id="support">
                                <g id="phone-call-auricular-symbol-in-black">
                                    <g id="telephone">
                                        <path d="M13.6722911,11.8964657 C13.0847651,11.3164241 12.3512931,11.3164241 11.7675094,11.8964657 C11.3221871,12.3380457 10.8768649,12.7796258 10.439027,13.2286902 C10.3192765,13.352183 10.218237,13.3783784 10.0722911,13.2960499 C9.78414137,13.1388773 9.47728067,13.0116424 9.20035759,12.839501 C7.9092973,12.0274428 6.82780042,10.983368 5.86979626,9.80831601 C5.39453638,9.22453222 4.97166736,8.5995842 4.67603326,7.8960499 C4.616158,7.75384615 4.62738462,7.66029106 4.74339293,7.54428274 C5.18871518,7.11392931 5.62281081,6.67234927 6.06064865,6.23076923 C6.67062786,5.61704782 6.67062786,4.8985447 6.05690644,4.28108108 C5.7088815,3.92931393 5.36085655,3.58503119 5.0128316,3.23326403 C4.65358004,2.87401247 4.29807069,2.51101871 3.93507692,2.15550936 C3.34755094,1.58295218 2.614079,1.58295218 2.03029522,2.15925156 C1.58123077,2.6008316 1.15087734,3.05363825 0.694328482,3.48773389 C0.271459459,3.88814969 0.0581538462,4.37837838 0.0132474012,4.95093555 C-0.0578544699,5.88274428 0.170419958,6.76216216 0.49224948,7.61912682 C1.15087734,9.39293139 2.15378794,10.9683992 3.37000416,12.4128898 C5.0128316,14.3663202 6.97374636,15.9118503 9.26771726,17.027027 C10.3005655,17.5284823 11.3708358,17.9139293 12.5346611,17.9775468 C13.3354927,18.0224532 14.0315426,17.8203742 14.589131,17.1954262 C14.9708358,16.768815 15.4011892,16.3796258 15.8053472,15.9717256 C16.4040998,15.3654886 16.407842,14.6320166 15.8128316,14.033264 C15.1018129,13.3185031 14.387052,12.6074844 13.6722911,11.8964657 Z" id="Path"></path>
                                        <path d="M12.9575301,8.91392931 L14.3384033,8.67817048 C14.1213555,7.40956341 13.5226029,6.26070686 12.6132474,5.34760915 C11.651501,4.38586279 10.4352848,3.77962578 9.09557588,3.59251559 L8.90098129,4.98087318 C9.93757173,5.12681913 10.8806071,5.59459459 11.6253056,6.33929314 C12.3288399,7.04282744 12.789131,7.93347193 12.9575301,8.91392931 Z" id="Path"></path>
                                        <path d="M15.1167817,2.91143451 C13.5226029,1.31725572 11.5055551,0.310602911 9.27894387,0 L9.08434927,1.38835759 C11.007842,1.65779626 12.7517089,2.52972973 14.1288399,3.9031185 C15.434869,5.20914761 16.2918337,6.85945946 16.6024366,8.67442827 L17.9833098,8.43866944 C17.620316,6.33555094 16.628632,4.42702703 15.1167817,2.91143451 Z" id="Path"></path>
                                    </g>
                                </g>
                            </g>
                        </g>
                    </g>
                </g>
            </g>
        </g>
    </g>
</svg>