<?xml version="1.0" encoding="UTF-8"?>
<svg width="100px" height="92px" viewBox="0 0 100 92" version="1.1" xmlns="http://www.w3.org/2000/svg" xmlns:xlink="http://www.w3.org/1999/xlink">
    <!-- Generator: sketchtool 52.5 (67469) - http://www.bohemiancoding.com/sketch -->
    <title>8A20503F-E3F6-41B6-A840-7984C35B0D52</title>
    <desc>Created with sketchtool.</desc>
    <g id="Page-1" stroke="none" stroke-width="1" fill="none" fill-rule="evenodd">
        <g id="Pocetna-v1" transform="translate(-102.000000, -2066.000000)">
            <g id="Group">
                <g id="Deratizacija" transform="translate(102.000000, 1460.000000)">
                    <g id="Text">
                        <g id="A-što-vi-možete-učiniti.." transform="translate(0.000000, 606.000000)">
                            <g id="warning">
                                <path d="M95.0006617,81.0407808 L95.001207,81.0398391 C97.7695556,76.2613521 97.7838542,70.6038801 95.0403666,65.855536 L62.9724411,10.3201456 C60.2480764,5.52174839 55.3509553,2.68056151 49.8130727,2.68056151 C44.2915119,2.68056151 39.382552,5.52861695 36.6445673,10.3156298 L4.55045773,65.8866917 C1.7985196,70.7025834 1.81761697,76.4031467 4.60188129,81.1786899 C7.35280669,85.9046387 12.2465431,88.7187756 17.73372,88.7187756 L81.7695945,88.7187756 C87.2817213,88.7187756 92.211375,85.8602446 95.0006617,81.0407808 Z M99.3278824,83.545808 C99.3277915,83.545965 99.3277005,83.546122 99.3276096,83.546279 L99.3281548,83.5453373 C99.328065,83.5454925 99.3279752,83.5456477 99.3278854,83.5458029 Z" id="Shape" stroke="#FFF504" stroke-width="5" fill="#232323" fill-rule="nonzero"></path>
                                <path d="M49.7926009,64.1550205 C47.0084324,64.1550205 44.6746442,66.4888087 44.6746442,69.2729772 C44.6746442,72.0571456 47.0084324,74.3909339 49.7926009,74.3909339 C52.4744102,74.3909339 54.9105576,72.0571456 54.7877267,69.3958081 C54.9105576,66.4683369 52.5972412,64.1550205 49.7926009,64.1550205 Z" id="Path" fill="#FFF504"></path>
                                <path d="M48.5233476,28.2269643 C46.0872002,28.9230064 44.572285,31.1339637 44.572285,33.8157731 C44.695116,35.4330474 44.7974751,37.0707935 44.9203061,38.6880678 C45.2683272,44.8500877 45.6163482,50.8892767 45.9643693,57.0512965 C46.0872002,59.1394229 47.7044746,60.6543381 49.7926009,60.6543381 C51.8807272,60.6543381 53.5184734,59.0370638 53.6208325,56.9284656 C53.6208325,55.6592123 53.6208325,54.4923182 53.7436635,53.2025931 C53.9688536,49.2515305 54.2145155,45.3004679 54.4397056,41.3494053 C54.5625366,38.790427 54.7877267,36.2314486 54.9105576,33.6724703 C54.9105576,32.7512381 54.7877267,31.932365 54.4397056,31.1134919 C53.3956424,28.8206473 50.959495,27.6537532 48.5233476,28.2269643 Z" id="Path" fill="#FFF504"></path>
                            </g>
                        </g>
                    </g>
                </g>
            </g>
        </g>
    </g>
</svg>